<?xml version="1.0"?>
<svg xmlns="http://www.w3.org/2000/svg" height="512px" viewBox="0 0 496 495" width="512px"><path d="m8 168.480469h480c4.417969 0 8-3.582031 8-8s-3.582031-8-8-8h-11.496094c-37.5625-90.511719-125.21875-150.128907-223.199218-151.800781h-.59375c-.621094-.0625-1.246094-.089844-1.871094-.085938-1.835938-.125-3.675782-.125-5.511719 0-.753906-.019531-1.507813.015625-2.257813.101562h-.09375c-.097656 0-.191406 0-.289062 0-97.972656 1.671876-185.628906 61.28125-223.191406 151.785157h-11.496094c-4.417969 0-8 3.582031-8 8s3.582031 8 8 8zm309.023438-91.824219c-20.261719 2.289062-40.632813 3.542969-61.023438 3.75v-63.0625c22.65625 4.144531 44.152344 25.710938 61.023438 59.3125zm-77.023438-59.3125v63.0625c-20.382812-.207031-40.738281-1.460938-60.992188-3.75 16.792969-33.335938 38.207032-54.863281 60.992188-59.3125zm0 79.0625v56.074219h-86.398438c4.167969-20.730469 10.296876-41.019531 18.300782-60.59375 22.597656 2.78125 45.332031 4.289062 68.097656 4.519531zm16 0c22.761719-.230469 45.488281-1.742188 68.078125-4.527344 8.007813 19.578125 14.144531 39.867188 18.320313 60.601563h-86.398438zm84.34375-6.847656c11.046875-1.78125 21.457031-3.878906 31.097656-6.277344 15.839844 20.941406 28.183594 44.3125 36.558594 69.199219h-49.3125c-4.171875-21.492188-10.3125-42.554688-18.34375-62.921875zm-6.601562-15.109375c-7.625-16.742188-17.730469-32.238281-29.972657-45.96875 21.390625 9.65625 40.539063 23.652343 56.230469 41.101562-8.246094 1.84375-16.996094 3.464844-26.257812 4.867188zm-171.476563 0c-9.25-1.394531-18.003906-3.015625-26.265625-4.867188 15.707031-17.492187 34.886719-31.519531 56.320312-41.183593-12.289062 13.742187-22.421874 29.269531-30.054687 46.050781zm-6.601563 15.109375c-8.039062 20.367187-14.179687 41.429687-18.351562 62.921875h-49.3125c8.378906-24.890625 20.730469-48.257813 36.574219-69.199219 9.625 2.398438 20.042969 4.496094 31.089843 6.277344zm303.390626 62.921875h-34.183594c-8.339844-26.398438-20.785156-51.320313-36.871094-73.847657 4.628906-1.472656 8.996094-3.023437 13.105469-4.65625 24.675781 21.75 44.433593 48.511719 57.949219 78.503907zm-72.4375-90.207031c-2.949219 1.007812-6.023438 1.972656-9.226563 2.894531-6.871094-8.128907-14.359375-15.714844-22.398437-22.695313 11.058593 5.730469 21.636718 12.351563 31.625 19.800782zm-268 2.902343c-3.203126-.929687-6.277344-1.894531-9.234376-2.902343 10.003907-7.453126 20.59375-14.078126 31.671876-19.808594-8.054688 6.980468-15.554688 14.570312-22.4375 22.710937zm-23.695313 8.800781c4.09375 1.632813 8.464844 3.183594 13.109375 4.65625-16.101562 22.523438-28.554688 47.445313-36.902344 73.847657h-34.183594c13.523438-29.992188 33.289063-56.757813 57.976563-78.503907zm0 0" fill="#FFFFFF"/><path d="m488 328.480469h-480c-4.417969 0-8 3.582031-8 8s3.582031 8 8 8h11.496094c37.5625 90.507812 125.21875 150.125 223.199218 151.800781h.296876.519531c.738281.070312 1.476562.097656 2.214843.078125.800782.046875 1.546876.054687 2.289063.054687 1.023437 0 1.96875 0 2.558594-.0625.789062.023438 1.574219-.011718 2.355469-.105468h.382812c97.96875-1.667969 185.625-61.269532 223.191406-151.765625h11.496094c4.417969 0 8-3.582031 8-8s-3.582031-8-8-8zm-309.023438 91.824219c20.261719-2.292969 40.632813-3.542969 61.023438-3.753907v63.066407c-22.65625-4.144532-44.152344-25.714844-61.023438-59.3125zm77.023438 59.3125v-63.066407c20.382812.210938 40.738281 1.460938 60.992188 3.753907-16.792969 33.335937-38.207032 54.863281-60.992188 59.3125zm0-79.066407v-56.070312h86.398438c-4.167969 20.730469-10.296876 41.019531-18.300782 60.589843-22.597656-2.777343-45.332031-4.289062-68.097656-4.519531zm-16 0c-22.761719.230469-45.488281 1.742188-68.078125 4.527344-8.007813-19.574219-14.144531-39.863281-18.320313-60.597656h86.398438zm-84.34375 6.847657c-11.046875 1.785156-21.457031 3.882812-31.097656 6.28125-15.839844-20.945313-28.183594-44.3125-36.558594-69.199219h49.328125c4.167969 21.492187 10.300781 42.550781 18.328125 62.917969zm6.601562 15.113281c7.621094 16.757812 17.726563 32.265625 29.972657 46.007812-21.390625-9.667969-40.542969-23.679687-56.230469-41.144531 8.246094-1.839844 16.996094-3.460938 26.257812-4.863281zm171.476563 0c9.25 1.390625 18.007813 3.011719 26.28125 4.863281-15.710937 17.496094-34.898437 31.523438-56.335937 41.183594 12.289062-13.742188 22.421874-29.265625 30.054687-46.046875zm6.601563-15.113281c8.039062-20.363282 14.179687-41.425782 18.351562-62.917969h49.3125c-8.378906 24.886719-20.730469 48.257812-36.574219 69.199219-9.625-2.398438-20.042969-4.496094-31.089843-6.28125zm-303.390626-62.917969h34.183594c8.339844 26.398437 20.785156 51.316406 36.871094 73.847656-4.632812 1.472656-9.003906 3.023437-13.105469 4.65625-24.675781-21.75-44.433593-48.515625-57.949219-78.503906zm72.4375 90.207031c2.949219-1.007812 6.023438-1.972656 9.226563-2.894531 6.871094 8.128906 14.359375 15.714843 22.398437 22.695312-11.058593-5.730469-21.636718-12.355469-31.625-19.800781zm268-2.902344c3.203126.925782 6.277344 1.894532 9.234376 2.902344-10.003907 7.453125-20.59375 14.078125-31.671876 19.808594 8.054688-6.980469 15.554688-14.574219 22.4375-22.710938zm23.695313-8.800781c-4.09375-1.632813-8.464844-3.183594-13.109375-4.65625 16.101562-22.527344 28.554688-47.449219 36.902344-73.847656h34.183594c-13.523438 29.992187-33.289063 56.753906-57.976563 78.503906zm0 0" fill="#FFFFFF"/><path d="m160 304.480469c4.417969 0 8-3.582031 8-8v-40c.585938-12.605469-9.109375-23.324219-21.710938-24h-26.289062v-48c0-4.417969-3.582031-8-8-8s-8 3.582031-8 8v112c0 4.417969 3.582031 8 8 8s8-3.582031 8-8v-48h26.289062c3.09375 0 5.710938 3.664062 5.710938 8v40c0 4.417969 3.582031 8 8 8zm0 0" fill="#FFFFFF"/><path d="m336 224.480469c-4.417969 0-8 3.582031-8 8v80c0 4.417969 3.582031 8 8 8s8-3.582031 8-8v-24h26.289062c12.601563-.675781 22.296876-11.394531 21.710938-24v-16c.585938-12.605469-9.109375-23.324219-21.710938-24zm40 24v16c0 4.335937-2.617188 8-5.710938 8h-26.289062v-32h26.289062c3.09375 0 5.710938 3.664062 5.710938 8zm0 0" fill="#FFFFFF"/><path d="m208 304.480469c4.417969 0 8-3.582031 8-8v-64h16c4.417969 0 8-3.582031 8-8s-3.582031-8-8-8h-16v-24c0-4.417969-3.582031-8-8-8s-8 3.582031-8 8v24h-16c-4.417969 0-8 3.582031-8 8s3.582031 8 8 8h16v64c0 4.417969 3.582031 8 8 8zm0 0" fill="#FFFFFF"/><path d="m288 304.480469c4.417969 0 8-3.582031 8-8v-64h16c4.417969 0 8-3.582031 8-8s-3.582031-8-8-8h-16v-24c0-4.417969-3.582031-8-8-8s-8 3.582031-8 8v24h-16c-4.417969 0-8 3.582031-8 8s3.582031 8 8 8h16v64c0 4.417969 3.582031 8 8 8zm0 0" fill="#FFFFFF"/></svg>
